# AST/ASF file generated using VICON BodyLanguage
# -----------------------------------------------
:version 1.10
:name VICON
:units
  mass 1.0
  length 0.45
  angle deg
:documentation
   .ast/.asf automatically generated from VICON data using
   VICON BodyBuilder and BodyLanguage model FoxedUp or BRILLIANT.MOD
:root
   order TX TY TZ RX RY RZ
   axis XYZ
   position 0 0 0  
   orientation 0 0 0 
:bonedata
  begin
     id 1 
     name lhipjoint
     direction 0.561001 -0.76473 0.316963 
     length 2.4722 
     axis 0 0 0  XYZ
  end
  begin
     id 2 
     name lfemur
     direction 0.34202 -0.939693 0  
     length 7.59403  
     axis 0 0 20  XYZ
    dof rx ry rz
    limits (-160.0 20.0)
           (-70.0 70.0)
           (-60.0 70.0)
  end
  begin
     id 3 
     name ltibia
     direction 0.34202 -0.939693 0   
     length 7.89655   
     axis 0 0 20   XYZ
    dof rx
    limits (-10.0 170.0)
  end
  begin
     id 4 
     name lfoot
     direction 0.061296 -0.168409 0.98381   
     length 2.73287   
     axis -90 7.62852e-016 20   XYZ
    dof rx rz
    limits (-45.0 90.0)
           (-70.0 20.0)
  end
  begin
     id 5 
     name ltoes
     direction 1.53547e-011 -4.21984e-011 1   
     length 1.37057   
     axis -90 7.62852e-016 20   XYZ
    dof rx
    limits (-90.0 20.0)
  end
  begin
     id 6 
     name rhipjoint
     direction -0.559611 -0.765599 0.317323   
     length 2.46939  
     axis 0 0 0  XYZ 
  end
  begin
     id 7 
     name rfemur
     direction -0.34202 -0.939693 0   
     length 7.53712   
     axis 0 0 -20   XYZ
    dof rx ry rz
    limits (-160.0 20.0)
           (-70.0 70.0)
           (-70.0 60.0)
  end
  begin
     id 8 
     name rtibia
     direction -0.34202 -0.939693 0   
     length 8.12549   
     axis 0 0 -20   XYZ
    dof rx
    limits (-10.0 170.0)
 end
 begin
     id 9 
     name rfoot
     direction -0.066984 -0.184037 0.980634   
     length 2.67541  
     axis -90 -7.62852e-016 -20   XYZ
    dof rx rz
    limits (-45.0 90.0)
           (-20.0 70.0)
  end
  begin
     id 10 
     name rtoes
     direction -1.53549e-011 -4.21786e-011 1   
     length 1.34085   
     axis -90 -7.62852e-016 -20   XYZ
    dof rx
    limits (-90.0 20.0)
  end
  begin
     id 11 
     name lowerback
     direction -0.0522728 0.992594 -0.109658   
     length 2.05633   
     axis 0 0 0   XYZ
    dof rx ry rz
    limits (-20.0 45.0)
           (-30.0 30.0)
           (-30.0 30.0)
  end
  begin
     id 12 
     name upperback
     direction 0.00589338 0.999977 0.00335704   
     length 2.05845   
     axis 0 0 0   XYZ
    dof rx ry rz
    limits (-20.0 45.0)
           (-30.0 30.0)
           (-30.0 30.0)
  end
  begin
     id 13 
     name thorax
     direction 0.0292928 0.998059 0.0549487   
     length 2.09281   
     axis 0 0 0   XYZ
    dof rx ry rz
    limits (-20.0 45.0)
           (-30.0 30.0)
           (-30.0 30.0)
  end
  begin
     id 14 
     name lowerneck
     direction 0.0356368 0.980775 0.191858   
     length 1.84767   
     axis 0 0 0   XYZ
    dof rx ry rz
    limits (-20.0 45.0)
           (-30.0 30.0)
           (-30.0 30.0)
  end
  begin
     id 15 
     name upperneck
     direction -0.0227605 0.98931 -0.14404   
     length 1.89582   
     axis 0 0 0   XYZ
    dof rx ry rz
    limits (-20.0 45.0)
           (-30.0 30.0)
           (-30.0 30.0)
  end
  begin
     id 16
     name head
     direction -0.00932985 0.997511 -0.0698904  
     length 1.90213  
     axis 0 0 0   XYZ
    dof rx ry rz
    limits (-20.0 45.0)
           (-30.0 30.0)
           (-30.0 30.0)
  end
  begin
     id 17 
     name lclavicle
     direction 0.873442 0.479511 0.0846686  
     length 3.41193  
     axis 0 0 0   XYZ
    dof ry rz
    limits (-20.0 10.0)
           (0.0 20.0)
  end
  begin
     id 18 
     name lhumerus
     direction 1 -4.4897e-011 -5.62117e-018   
     length 5.59864   
     axis 180 -30 -90   XYZ
    dof rx ry rz
    limits (-60.0 90.0)
           (-90.0 90.0)
           (-90.0 90.0)
  end
  begin
     id 19
     name lradius
     direction 1 -4.48966e-011 -6.26295e-027   
     length 3.59542   
     axis 180 -30 -90   XYZ
    dof rx
    limits (-10.0 170.0)
  end
  begin
     id 20
     name lwrist
     direction 1 -4.48947e-011 -1.74096e-026   
     length 1.79771   
     axis 1.04567e-014 90 90   XYZ
    dof ry
    limits (-180.0 0.0)
 end
  begin
     id 21 
     name lhand
     direction 1 -4.49085e-011 -3.48469e-026   
     length 0.572014   
     axis 2.22196e-014 90 90   XYZ
    dof rx rz
    limits (-90.0 90.0)
           (-45.0 45.0)
  end
  begin
     id 22 
     name lfingers
     direction 1 -4.48884e-011 -6.96135e-026   
     length 0.461173   
     axis 4.44383e-014 90 90   XYZ
    dof rx
    limits (0.0 90.0)
  end
  begin
     id 23
     name lthumb
     direction 0.707107 -6.34976e-011 0.707107   
     length 0.662154   
     axis -90 45 -5.4397e-014   XYZ
    dof rx rz
    limits (-45.0 45.0)
           (-45.0 45.0)
  end
  begin
     id 24 
     name rclavicle
     direction -0.890242 0.443271 0.104786   
     length 3.46753  
     axis 0 0 0   XYZ 
    dof ry rz
    limits (-10.0 20.0)
           (-20.0 0.0)
  end
  begin
     id 25 
     name rhumerus
     direction -1 -4.48963e-011 -5.41723e-018  
     length 5.8094   
     axis 180 30 90   XYZ
    dof rx ry rz
    limits (-90.0 60.0)
           (-90.0 90.0)
           (-90.0 90.0)
  end
  begin
     id 26 
     name rradius
     direction -1 -4.48958e-011 -6.51059e-027   
     length 3.66953   
     axis 180 30 90   XYZ
    dof rx
    limits (-10.0 170.0)
  end
  begin
     id 27 
     name rwrist
     direction -1 -4.48975e-011 -1.74124e-026   
     length 1.83476   
     axis 1.04567e-014 -90 -90   XYZ
    dof ry
    limits (-180.0 0.0)
  end
  begin
     id 28
     name rhand
     direction -1 -4.49013e-011 -3.48326e-026   
     length 0.57843   
     axis 2.22196e-014 -90 -90   XYZ
    dof rx rz
    limits (-90.0 90.0)
           (-45.0 45.0)
  end
  begin
     id 29
     name rfingers
     direction -1 -4.49023e-011 -6.9669e-026   
     length 0.466345   
     axis 4.44383e-014 -90 -90   XYZ
    dof rx
    limits (0.0 90.0)
  end
  begin
     id 30
     name rthumb
     direction -0.707107 -6.34926e-011 0.707107   
     length 0.669581   
     axis -90 -45 5.4397e-014   XYZ
    dof rx rz
    limits (-45.0 45.0)
           (-45.0 45.0)
  end
:hierarchy
  begin
    root lhipjoint rhipjoint lowerback
    lhipjoint lfemur
    lfemur ltibia
    ltibia lfoot
    lfoot ltoes
    rhipjoint rfemur
    rfemur rtibia
    rtibia rfoot
    rfoot rtoes
    lowerback upperback
    upperback thorax
    thorax lowerneck lclavicle rclavicle
    lowerneck upperneck
    upperneck head
    lclavicle lhumerus
    lhumerus lradius
    lradius lwrist
    lwrist lhand lthumb
    lhand lfingers
    rclavicle rhumerus
    rhumerus rradius
    rradius rwrist
    rwrist rhand rthumb
    rhand rfingers
  end

#!OML:ASF H:\SkateBoarding\Project 1\Capture day 1\Session 1\Skater.ASF
:FULLY-SPECIFIED
:DEGREES
147
root 6.65716 18.6744 -17.9584 23.0857 8.16623 2.83329
lowerback 27.549 6.35469 -3.11925
upperback 8.64666 7.42539 2.04298
thorax -6.12276 3.5447 1.63132
lowerneck -27.371 -7.27584 -3.29535
upperneck 23.5306 -10.1315 4.40694
head 12.7763 -4.11363 0.330561
rclavicle 3.81667e-014 -1.43125e-014
rhumerus 22.9954 -9.28486 -70.3188
rradius 19.8391
rwrist 20.6378
rhand -32.0024 4.03219
rfingers 7.12502
rthumb -5.25107 -25.8828
lclavicle 3.81667e-014 -1.43125e-014
lhumerus -26.6911 -17.2409 89.0199
lradius 41.7499
lwrist 19.1066
lhand -23.0977 12.0466
lfingers 7.12502
lthumb 3.3487 42
rfemur -92.646 -5.33368 7.65674
rtibia 113.481
rfoot -15.7123 26.8754
rtoes -13.5742
lfemur -31.3798 -8.42416 -19.3191
ltibia 26.7504
lfoot -26.606 -7.03078
ltoes -4.50648
148
root 6.66985 18.6455 -17.7665 23.0875 8.16286 2.41516
lowerback 27.8519 6.41404 -2.86461
upperback 8.71635 7.55793 2.12734
thorax -6.17909 3.60368 1.51596
lowerneck -27.4129 -7.27823 -3.2649
upperneck 23.1726 -10.1152 4.38233
head 12.6362 -4.11837 0.322482
rclavicle -1.90833e-014 6.83819e-014
rhumerus 23.5672 -9.45858 -70.3667
rradius 19.8427
rwrist 20.9927
rhand -32.2322 3.34479
rfingers 7.12502
rthumb -5.47293 -26.5645
lclavicle -1.90833e-014 6.83819e-014
lhumerus -26.3019 -16.8804 88.7803
lradius 41.6273
lwrist 18.923
lhand -23.3103 11.7837
lfingers 7.12502
lthumb 3.14346 41.7403
rfemur -93.454 -4.38782 7.31276
rtibia 111.618
rfoot -15.152 27.298
rtoes -12.9448
lfemur -31.3197 -7.98134 -18.9272
ltibia 27.7032
lfoot -26.1347 -8.52542
ltoes -1.71569
149
root 6.68061 18.6203 -17.5699 23.0735 8.28564 2.0091
lowerback 28.1394 6.40743 -2.5768
upperback 8.74845 7.61976 2.20949
thorax -6.26084 3.62974 1.40233
lowerneck -27.4082 -7.27318 -3.24338
upperneck 22.9004 -10.1071 4.40888
head 12.527 -4.11831 0.333981
rclavicle 4.77083e-015 1.11319e-014
rhumerus 24.05 -9.53358 -70.3898
rradius 19.9419
rwrist 21.2374
rhand -32.4625 2.39998
rfingers 7.12502
rthumb -5.69525 -27.5035
lclavicle 4.77083e-015 1.11319e-014
lhumerus -26.048 -16.4774 88.5038
lradius 41.5349
lwrist 18.7367
lhand -23.6055 11.8883
lfingers 7.12502
lthumb 2.85831 41.8489
rfemur -93.9321 -3.54655 7.02262
rtibia 109.617
rfoot -14.7289 27.8713
rtoes -12.4348
lfemur -31.4302 -7.5597 -18.5194
ltibia 28.7971
lfoot -25.8512 -8.84637
ltoes -2.47987
150
root 6.68718 18.5843 -17.3698 23.0635 8.38334 1.73256
lowerback 28.3716 6.42369 -2.523
upperback 8.77494 7.653 2.29695
thorax -6.34906 3.64247 1.43864
lowerneck -27.4148 -7.2522 -3.2318
upperneck 22.7145 -10.0684 4.40322
head 12.4517 -4.10721 0.339482
rclavicle 1.11319e-013 -4.29375e-014
rhumerus 24.6249 -9.72358 -70.5846
rradius 19.9275
rwrist 21.8056
rhand -32.9666 1.62473
rfingers 7.12502
rthumb -6.182 -28.2651
lclavicle 1.11319e-013 -4.29375e-014
lhumerus -25.7401 -16.011 88.256
lradius 41.2658
lwrist 18.7189
lhand -23.7387 12.0817
lfingers 7.12502
lthumb 2.72967 42.044
rfemur -94.276 -2.78449 6.64322
rtibia 107.583
rfoot -14.9284 27.6576
rtoes -13.3179
lfemur -31.3788 -7.01719 -18.3084
ltibia 29.9802
lfoot -25.4049 -9.84779
ltoes -2.85411
151
root 6.69638 18.5312 -17.1655 23.1224 8.53019 1.50115
lowerback 28.3925 6.4003 -2.47967
upperback 8.81415 7.64248 2.39478
thorax -6.32342 3.6363 1.52566
lowerneck -27.4475 -7.217 -3.21645
upperneck 22.6118 -9.98609 4.2964
head 12.4053 -4.08774 0.313096
rclavicle -6.36111e-015 -2.70347e-014
rhumerus 25.1494 -9.51499 -70.4751
rradius 20.0411
rwrist 21.6357
rhand -33.1986 0.556058
rfingers 7.12502
rthumb -6.40599 -29.3271
lclavicle -6.36111e-015 -2.70347e-014
lhumerus -25.5159 -15.6145 88.0394
lradius 41.1061
lwrist 18.7189
lhand -24.0194 11.8215
lfingers 7.12502
lthumb 2.45863 41.7871
rfemur -94.5583 -2.18036 6.24127
rtibia 105.574
rfoot -14.8383 27.6423
rtoes -13.3462
lfemur -31.405 -6.58422 -18.0986
ltibia 31.357
lfoot -24.8074 -11.262
ltoes -1.0884
152
root 6.70118 18.4726 -16.9558 23.0989 8.6843 1.29373
lowerback 28.5416 6.36968 -2.35813
upperback 8.79053 7.62832 2.35273
thorax -6.39909 3.62875 1.40309
lowerneck -27.4475 -7.19865 -3.13409
upperneck 22.5995 -10.0265 4.40712
head 12.4053 -4.08291 0.334119
rclavicle 4.77083e-015 3.18055e-015
rhumerus 25.6802 -9.39049 -70.4297
rradius 20.0444
rwrist 21.167
rhand -32.9879 -0.357136
rfingers 7.12502
rthumb -6.2025 -30.2463
lclavicle 4.77083e-015 3.18055e-015
lhumerus -25.2962 -15.2331 87.6673
lradius 40.8502
lwrist 18.6275
lhand -24.1861 11.685
lfingers 7.12502
lthumb 2.29764 41.6524
rfemur -94.5689 -1.57128 5.87373
rtibia 103.522
rfoot -14.9243 27.2421
rtoes -13.951
lfemur -31.3348 -6.06255 -17.9348
ltibia 32.8291
lfoot -23.9054 -13.0897
ltoes 1.41025
153
root 6.70545 18.4176 -16.7413 23.0893 8.89745 1.1659
lowerback 28.5203 6.31206 -2.3651
upperback 8.80205 7.55675 2.36115
thorax -6.37444 3.59532 1.44327
lowerneck -27.44 -7.14827 -3.06104
upperneck 22.6134 -9.98465 4.39872
head 12.4032 -4.05907 0.327641
rclavicle 2.8625e-014 -3.02153e-014
rhumerus 26.098 -9.77044 -70.9616
rradius 20.1895
rwrist 21.6701
rhand -33.2827 -1.54623
rfingers 7.12502
rthumb -6.48718 -31.4269
lclavicle 2.8625e-014 -3.02153e-014
lhumerus -25.1298 -14.9564 87.355
lradius 40.6706
lwrist 18.6383
lhand -24.4883 11.8264
lfingers 7.12502
lthumb 2.0058 41.7967
rfemur -94.3374 -1.0848 5.48963
rtibia 101.402
rfoot -14.4307 27.1192
rtoes -12.9747
lfemur -31.4075 -5.69026 -17.7702
ltibia 34.4045
lfoot -23.4096 -14.1038
ltoes 1.81592
154
root 6.71251 18.3528 -16.5274 23.1292 9.11492 1.09098
lowerback 28.4255 6.23856 -2.36414
upperback 8.76774 7.46658 2.32416
thorax -6.35814 3.55427 1.43894
lowerneck -27.3918 -7.0861 -2.88931
upperneck 22.6873 -9.95039 4.31883
head 12.4072 -4.03886 0.277959
rclavicle 3.18055e-015 -9.54166e-015
rhumerus 26.5035 -9.66721 -70.9879
rradius 20.3166
rwrist 21.591
rhand -33.2584 -2.5824
rfingers 7.12502
rthumb -6.46372 -32.4638
lclavicle 3.18055e-015 -9.54166e-015
lhumerus -24.9427 -14.6449 87.041
lradius 40.3405
lwrist 18.6369
lhand -24.8018 11.3497
lfingers 7.12502
lthumb 1.70295 41.3226
rfemur -94.0362 -0.663655 5.04829
rtibia 99.2743
rfoot -13.884 26.7118
rtoes -12.3184
lfemur -31.5949 -5.30206 -17.6702
ltibia 36.1109
lfoot -22.8206 -15.0072
ltoes 2.20181
155
root 6.71566 18.2872 -16.3066 23.1179 9.38358 1.11406
lowerback 28.3009 6.11088 -2.5005
upperback 8.752 7.27495 2.29921
thorax -6.31888 3.46557 1.56238
lowerneck -27.3589 -6.98047 -2.85668
upperneck 22.8204 -9.83802 4.36157
head 12.4508 -3.97694 0.309761
rclavicle 4.77083e-014 1.98785e-014
rhumerus 26.9123 -9.11376 -70.7865
rradius 20.506
rwrist 21.1397
rhand -33.0892 -3.82185
rfingers 7.12502
rthumb -6.30032 -33.7082
lclavicle 4.77083e-014 1.98785e-014
lhumerus -24.7337 -14.0066 86.7636
lradius 39.9424
lwrist 18.4997
lhand -24.9639 11.1329
lfingers 7.12502
lthumb 1.54646 41.107
rfemur -93.4732 -0.279238 4.54493
rtibia 97.2055
rfoot -13.7494 25.623
rtoes -12.4987
lfemur -31.7254 -5.08514 -17.5752
ltibia 37.8628
lfoot -21.971 -16.4574
ltoes 3.87153
156
root 6.71445 18.2148 -16.0831 23.062 9.6629 1.16777
lowerback 28.1357 6.0762 -2.74736
upperback 8.71676 7.17795 2.32564
thorax -6.30582 3.42192 1.77321
lowerneck -27.1701 -6.91527 -2.78709
upperneck 22.9585 -9.77694 4.32692
head 12.4619 -3.9483 0.301315
rclavicle -9.22361e-014 1.98785e-014
rhumerus 27.1068 -9.20711 -70.9278
rradius 20.7682
rwrist 21.549
rhand -33.3122 -5.34349
rfingers 7.12502
rthumb -6.51559 -35.2233
lclavicle -9.22361e-014 1.98785e-014
lhumerus -24.6666 -13.9666 86.4998
lradius 39.7318
lwrist 18.7601
lhand -25.1176 10.8034
lfingers 7.12502
lthumb 1.398 40.7786
rfemur -92.7705 0.0980212 4.03856
rtibia 95.2363
rfoot -12.5603 25.1487
rtoes -10.8018
lfemur -31.8119 -4.72843 -17.5664
ltibia 39.7298
lfoot -21.5292 -17.2888
ltoes 3.38422
157
root 6.71232 18.1324 -15.8532 22.9498 9.94135 1.2731
lowerback 27.8968 5.98181 -2.91419
upperback 8.73219 7.01849 2.222
thorax -6.16964 3.34939 1.82655
lowerneck -26.9827 -6.85622 -2.72911
upperneck 23.0766 -9.78817 4.52583
head 12.4851 -3.91981 0.368788
rclavicle 5.56597e-014 -1.82882e-014
rhumerus 27.3074 -9.23664 -71.0866
rradius 21.1013
rwrist 21.7136
rhand -32.8996 -6.70298
rfingers 7.12502
rthumb -6.11733 -36.5947
lclavicle 5.56597e-014 -1.82882e-014
lhumerus -24.4284 -13.6507 86.1582
lradius 39.3714
lwrist 18.6555
lhand -25.3831 10.7141
lfingers 7.12502
lthumb 1.1416 40.6908
rfemur -91.9168 0.388756 3.60145
rtibia 93.7288
rfoot -11.2415 24.449
rtoes -10.3501
lfemur -31.857 -4.52902 -17.4878
ltibia 41.5851
lfoot -20.2305 -18.9215
ltoes 5.95347
158
root 6.71135 18.0559 -15.6201 22.8991 10.2171 1.46055
lowerback 27.6857 5.9297 -3.20939
upperback 8.61958 6.88193 2.13968
thorax -6.20723 3.28866 1.95762
lowerneck -26.7078 -6.80673 -2.57919
upperneck 23.2997 -9.79844 4.52607
head 12.5145 -3.90907 0.348765
rclavicle -3.49861e-014 1.59028e-014
rhumerus 27.2933 -9.04251 -70.9838
rradius 21.4201
rwrist 21.3217
rhand -32.731 -8.01352
rfingers 7.12502
rthumb -5.95452 -37.9098
lclavicle -3.49861e-014 1.59028e-014
lhumerus -24.4507 -13.7434 85.8263
lradius 39.2371
lwrist 18.9409
lhand -25.4587 10.2881
lfingers 7.12502
lthumb 1.06852 40.2652
rfemur -90.8746 0.718307 2.89205
rtibia 91.977
rfoot -9.06773 24.3375
rtoes -9.21343
lfemur -32.1633 -4.41579 -17.4799
ltibia 43.5167
lfoot -18.0341 -19.8338
ltoes 5.99323
159
root 6.70498 17.945 -15.377 22.7393 10.5402 1.69263
lowerback 27.4158 5.88177 -3.56627
upperback 8.58141 6.73894 2.06099
thorax -6.13808 3.22445 2.13758
lowerneck -26.5517 -6.73763 -2.44995
upperneck 23.6286 -9.80707 4.62233
head 12.6165 -3.87919 0.364172
rclavicle 1.74931e-014 -4.6118e-014
rhumerus 27.0992 -8.8437 -70.8636
rradius 22.001
rwrist 20.8217
rhand -32.6384 -9.25583
rfingers 7.12502
rthumb -5.86513 -39.1547
lclavicle 1.74931e-014 -4.6118e-014
lhumerus -24.3314 -13.8754 85.4276
lradius 39.1333
lwrist 19.3063
lhand -25.3664 10.3457
lfingers 7.12502
lthumb 1.15772 40.3223
rfemur -89.8009 1.01036 2.54576
rtibia 90.6367
rfoot -10.5268 23.8112
rtoes -12.2949
lfemur -31.867 -4.07175 -17.6035
ltibia 45.3936
lfoot -18.5622 -21.0471
ltoes 6.51548
160
root 6.70279 17.826 -15.1374 22.6797 10.8071 1.94032
lowerback 26.9906 5.80485 -3.82119
upperback 8.53986 6.58464 1.87383
thorax -5.97184 3.15523 2.15619
lowerneck -26.3628 -6.79325 -2.68198
upperneck 23.9734 -10.0017 5.22473
head 12.7832 -3.89173 0.593879
rclavicle 9.54166e-015 3.18055e-015
rhumerus 27.0705 -8.13132 -70.0851
rradius 22.4679
rwrist 19.2143
rhand -32.3065 -10.1528
rfingers 7.12502
rthumb -5.54465 -40.0602
lclavicle 9.54166e-015 3.18055e-015
lhumerus -24.0328 -14.0147 84.9153
lradius 38.9259
lwrist 19.638
lhand -25.1469 9.85846
lfingers 7.12502
lthumb 1.36969 39.8338
rfemur -88.8248 1.24581 2.11001
rtibia 89.324
rfoot -10.721 23.3969
rtoes -11.0851
lfemur -31.8739 -4.05037 -17.6142
ltibia 47.2904
lfoot -18.5153 -22.0891
ltoes 5.94286
161
root 6.69322 17.7183 -14.8882 22.4203 11.1681 2.16017
lowerback 26.8251 5.74861 -4.13295
upperback 8.4721 6.43962 1.7735
thorax -5.9752 3.08991 2.27768
lowerneck -26.3637 -6.74757 -2.5194
upperneck 24.4573 -10.0471 5.24805
head 12.9741 -3.87488 0.565102
rclavicle -2.22639e-014 -1.03368e-014
rhumerus 26.6554 -8.40084 -70.3971
rradius 23.0441
rwrist 19.6849
rhand -32.3607 -10.7257
rfingers 7.12502
rthumb -5.59703 -40.6318
lclavicle -2.22639e-014 -1.03368e-014
lhumerus -23.7672 -14.0929 84.4828
lradius 38.8468
lwrist 19.9405
lhand -24.9746 9.84082
lfingers 7.12502
lthumb 1.53613 39.815
rfemur -87.642 1.53653 1.87964
rtibia 88.1343
rfoot -10.3158 22.5213
rtoes -10.1987
lfemur -31.5626 -4.05611 -17.5704
ltibia 49.0922
lfoot -17.7662 -23.2548
ltoes 6.88995
